<?xml version="1.0" encoding="utf-8"?>
<!-- Generator: Adobe Illustrator 16.0.4, SVG Export Plug-In . SVG Version: 6.00 Build 0)  -->
<!DOCTYPE svg PUBLIC "-//W3C//DTD SVG 1.1//EN" "http://www.w3.org/Graphics/SVG/1.1/DTD/svg11.dtd">
<svg version="1.1" id="Layer_1" xmlns="http://www.w3.org/2000/svg" xmlns:xlink="http://www.w3.org/1999/xlink" x="0px" y="0px"
	 width="53.667px" height="90.167px" viewBox="0 0 53.667 90.167" enable-background="new 0 0 53.667 90.167" xml:space="preserve">
<g>
	<path fill="#FFFFFF" d="M29.429,79.467v4.165c0,0.093-0.034,0.175-0.102,0.245c-0.068,0.07-0.15,0.105-0.249,0.105H28.98
		c-0.149,0-0.266-0.07-0.35-0.21l-1.968-3.276v3.108c0,0.103-0.037,0.191-0.111,0.266c-0.075,0.075-0.166,0.112-0.273,0.112
		c-0.098,0-0.182-0.038-0.252-0.112c-0.07-0.074-0.104-0.163-0.104-0.266v-4.158c0-0.098,0.034-0.182,0.104-0.252
		c0.07-0.07,0.154-0.105,0.252-0.105h0.098c0.159,0,0.28,0.07,0.364,0.21l1.946,3.248v-3.08c0-0.103,0.035-0.191,0.104-0.266
		c0.07-0.075,0.154-0.112,0.252-0.112c0.107,0,0.199,0.037,0.273,0.112S29.429,79.364,29.429,79.467z"/>
	<path fill="#FFFFFF" d="M33.594,82.239c0,0.093-0.033,0.171-0.099,0.234s-0.143,0.095-0.23,0.095h-2.275
		c0.032,0.252,0.142,0.451,0.325,0.599c0.185,0.147,0.41,0.22,0.676,0.22c0.159,0,0.295-0.025,0.409-0.077
		c0.115-0.051,0.237-0.13,0.368-0.238c0.065-0.056,0.139-0.088,0.221-0.098c0.081-0.009,0.162,0.014,0.241,0.07
		c0.065,0.051,0.099,0.124,0.102,0.217c0.002,0.093-0.027,0.173-0.088,0.238c-0.331,0.346-0.761,0.518-1.288,0.518
		c-0.476,0-0.875-0.158-1.196-0.476c-0.322-0.317-0.483-0.73-0.483-1.239s0.161-0.918,0.483-1.229
		c0.321-0.31,0.721-0.465,1.196-0.465c0.462,0,0.848,0.148,1.155,0.444S33.579,81.744,33.594,82.239z M30.989,82.043h1.897
		c-0.033-0.252-0.135-0.449-0.305-0.592c-0.171-0.142-0.379-0.213-0.627-0.213c-0.257,0-0.474,0.072-0.65,0.217
		C31.127,81.6,31.021,81.795,30.989,82.043z"/>
	<path fill="#FFFFFF" d="M35.428,82.75l-0.791,1.085c-0.057,0.075-0.13,0.121-0.221,0.14s-0.179,0.005-0.263-0.042
		c-0.079-0.046-0.127-0.118-0.144-0.213s0.004-0.181,0.06-0.255l0.945-1.302l-0.714-0.987c-0.052-0.075-0.069-0.16-0.053-0.255
		c0.016-0.096,0.063-0.169,0.144-0.221c0.084-0.051,0.172-0.067,0.266-0.049s0.168,0.067,0.224,0.147l0.547,0.784l0.546-0.784
		c0.056-0.08,0.13-0.128,0.224-0.147s0.182-0.002,0.266,0.049c0.08,0.051,0.128,0.125,0.144,0.221
		c0.017,0.096-0.001,0.181-0.052,0.255l-0.715,0.987l0.945,1.302c0.056,0.075,0.076,0.16,0.06,0.255s-0.064,0.167-0.144,0.213
		c-0.084,0.047-0.171,0.061-0.263,0.042c-0.091-0.019-0.164-0.065-0.22-0.14L35.428,82.75z"/>
	<path fill="#FFFFFF" d="M37.766,83.618v-2.345h-0.322c-0.079,0-0.149-0.028-0.21-0.084c-0.061-0.056-0.091-0.124-0.091-0.203
		c0-0.089,0.028-0.162,0.087-0.221c0.059-0.058,0.13-0.087,0.214-0.087h0.322v-0.91c0-0.098,0.033-0.183,0.101-0.255
		c0.068-0.072,0.151-0.108,0.249-0.108c0.103,0,0.19,0.036,0.263,0.108s0.108,0.158,0.108,0.255v0.91h0.427
		c0.084,0,0.155,0.029,0.214,0.087c0.058,0.059,0.087,0.132,0.087,0.221c0,0.079-0.03,0.147-0.091,0.203
		c-0.061,0.056-0.131,0.084-0.21,0.084h-0.427v2.345c0,0.098-0.036,0.183-0.108,0.255c-0.072,0.073-0.16,0.109-0.263,0.109
		c-0.098,0-0.181-0.036-0.249-0.109C37.799,83.801,37.766,83.716,37.766,83.618z"/>
</g>
<path fill="#FFFFFF" d="M52.685,12.684c0,1.022-0.83,1.853-1.854,1.853H3.523c-1.023,0-1.853-0.83-1.853-1.853V2.987
	c0-1.023,0.829-1.853,1.853-1.853h47.309c1.023,0,1.854,0.829,1.854,1.853V12.684z"/>
<circle fill="none" stroke="#231F20" stroke-miterlimit="10" cx="8.605" cy="26.814" r="7.219"/>
<circle fill="none" stroke="#231F20" stroke-miterlimit="10" cx="8.605" cy="45.065" r="7.218"/>
<circle fill="none" stroke="#231F20" stroke-miterlimit="10" cx="8.605" cy="63.316" r="7.219"/>
<circle fill="none" stroke="#231F20" stroke-miterlimit="10" cx="26.856" cy="26.814" r="7.219"/>
<circle fill="none" stroke="#231F20" stroke-miterlimit="10" cx="26.856" cy="45.065" r="7.218"/>
<circle fill="none" stroke="#231F20" stroke-miterlimit="10" cx="26.856" cy="63.316" r="7.219"/>
<circle fill="none" stroke="#231F20" stroke-miterlimit="10" cx="45.107" cy="26.814" r="7.219"/>
<circle fill="none" stroke="#231F20" stroke-miterlimit="10" cx="45.107" cy="45.065" r="7.218"/>
<circle fill="none" stroke="#231F20" stroke-miterlimit="10" cx="45.107" cy="63.316" r="7.219"/>
<path fill="none" stroke="#231F20" stroke-miterlimit="10" d="M45.107,88.785c3.986,0,7.219-3.232,7.219-7.219
	c0-3.987-3.232-7.219-7.219-7.219H26.856c-3.986,0-7.219,3.231-7.219,7.219c0,3.986,3.233,7.219,7.219,7.219H45.107z"/>
<circle fill="none" stroke="#231F20" stroke-miterlimit="10" cx="8.605" cy="81.566" r="7.219"/>
<path d="M43.712,27.07c-0.326-0.36-0.485-0.804-0.485-1.34c0.017-0.502,0.2-0.921,0.552-1.248c0.361-0.327,0.797-0.495,1.316-0.495
	c0.494,0,0.904,0.177,1.23,0.52c0.336,0.343,0.527,0.796,0.57,1.366c0.117,1.708-0.126,3.803-2.027,3.744
	c-0.713-0.033-1.257-0.293-1.6-1.056l0.778-0.335c0.193,0.394,0.478,0.586,0.854,0.586s0.678-0.176,0.904-0.527
	c0.227-0.352,0.311-0.788,0.269-1.307c-0.209,0.41-0.603,0.62-1.165,0.62C44.433,27.598,44.039,27.422,43.712,27.07z M44.995,26.769
	c0.268,0.008,0.502-0.076,0.704-0.26c0.209-0.192,0.309-0.41,0.309-0.67c0-0.561-0.418-0.989-0.946-0.997
	c-0.269-0.008-0.494,0.076-0.687,0.26c-0.193,0.176-0.285,0.402-0.285,0.67C44.089,26.316,44.466,26.761,44.995,26.769z"/>
<path d="M46.314,44.792c0.326,0.352,0.486,0.796,0.486,1.332c-0.018,0.503-0.201,0.922-0.562,1.248
	c-0.352,0.327-0.787,0.494-1.307,0.494c-0.494,0-0.904-0.167-1.239-0.511c-0.327-0.344-0.519-0.805-0.562-1.374
	c-0.117-1.709,0.126-3.803,2.027-3.744c0.712,0.033,1.258,0.293,1.6,1.055l-0.778,0.335c-0.192-0.394-0.478-0.587-0.855-0.587
	c-0.376,0-0.678,0.176-0.903,0.528c-0.227,0.352-0.311,0.788-0.269,1.307c0.226-0.41,0.62-0.62,1.164-0.62
	C45.593,44.256,45.987,44.432,46.314,44.792z M45.033,45.085c-0.27-0.008-0.504,0.076-0.713,0.269
	c-0.201,0.184-0.301,0.401-0.301,0.661c0,0.561,0.418,0.989,0.946,0.997c0.268,0.009,0.494-0.074,0.687-0.251
	c0.193-0.185,0.285-0.411,0.285-0.678C45.937,45.538,45.56,45.094,45.033,45.085z"/>
<path d="M44.475,63.539v-0.795h0.61c0.402,0.008,0.646-0.293,0.705-0.62c0.049-0.343-0.084-0.587-0.403-0.712
	c-0.093-0.041-0.218-0.059-0.376-0.059c-0.318-0.008-0.578,0.135-0.771,0.428l-0.653-0.479c0.301-0.527,0.93-0.846,1.607-0.804
	c0.445,0.024,0.812,0.185,1.105,0.478s0.436,0.645,0.436,1.039c0,0.426-0.259,0.846-0.662,1.08c0.27,0.1,0.479,0.285,0.637,0.561
	c0.16,0.277,0.244,0.562,0.244,0.872c0,0.493-0.176,0.888-0.536,1.181c-0.36,0.285-0.813,0.428-1.374,0.428
	c-0.829,0-1.482-0.444-1.785-1.105l0.756-0.402c0.074,0.176,0.217,0.326,0.426,0.469c0.209,0.135,0.41,0.201,0.604,0.201h-0.008
	c0.67,0,1.029-0.344,1.029-0.838c0-0.234-0.092-0.443-0.268-0.637c-0.176-0.192-0.411-0.293-0.713-0.285H44.475z"/>
<path d="M25.777,24.398c0.292-0.276,0.653-0.418,1.08-0.418c0.428,0,0.795,0.142,1.09,0.418c0.293,0.276,0.443,0.62,0.443,1.014
	c0,0.376-0.143,0.695-0.428,0.955c0.512,0.31,0.829,0.838,0.829,1.432c0,0.511-0.185,0.938-0.562,1.29
	c-0.377,0.351-0.828,0.528-1.374,0.528c-0.544,0-0.997-0.177-1.374-0.528c-0.376-0.352-0.561-0.779-0.561-1.29
	c0-0.603,0.31-1.131,0.821-1.432c-0.268-0.26-0.403-0.579-0.403-0.955C25.34,25.018,25.482,24.674,25.777,24.398z M26.086,28.502
	c0.209,0.192,0.469,0.285,0.77,0.285c0.302,0,0.553-0.092,0.762-0.285c0.21-0.192,0.311-0.436,0.311-0.712
	c0-0.268-0.101-0.503-0.302-0.695c-0.2-0.193-0.452-0.293-0.746-0.293H26.79c-0.285,0.009-0.527,0.109-0.72,0.302
	c-0.193,0.193-0.292,0.427-0.292,0.687C25.777,28.066,25.876,28.31,26.086,28.502z M26.874,26.057
	c0.394-0.009,0.661-0.294,0.661-0.638c0-0.335-0.285-0.611-0.678-0.611c-0.394,0-0.678,0.276-0.678,0.611
	C26.179,25.788,26.463,26.057,26.874,26.057z"/>
<path d="M26.958,44.994c-0.444,0-0.88,0.167-1.324,0.495l-0.511-0.377l0.47-2.772h2.99v0.812h-2.295l-0.26,1.382
	c0.235-0.176,0.678-0.31,1.022-0.31c0.527,0,0.973,0.159,1.324,0.478c0.352,0.31,0.527,0.746,0.527,1.307s-0.193,1.022-0.578,1.366
	s-0.896,0.519-1.524,0.519c-0.763,0-1.492-0.478-1.853-1.214c0.06-0.025,0.185-0.102,0.377-0.209l0.352-0.21
	c0.227,0.494,0.646,0.796,1.124,0.796c0.803,0,1.255-0.444,1.255-1.047C28.055,45.362,27.585,44.994,26.958,44.994z"/>
<path d="M28.541,66.042h-3.426v-0.41l2.227-2.681c0.252-0.293,0.378-0.569,0.378-0.829c0-0.46-0.394-0.788-0.904-0.788
	c-0.478,0-0.863,0.336-0.93,0.838l-0.821-0.176c0.075-0.461,0.268-0.82,0.595-1.098c0.327-0.275,0.72-0.41,1.172-0.41
	c0.494,0,0.904,0.15,1.24,0.461c0.335,0.301,0.502,0.695,0.502,1.173c0,0.494-0.201,0.964-0.594,1.407l-1.425,1.675h1.986V66.042z"
	/>
<path d="M6.839,24.062h3.87l-2.856,5.47H6.855l2.438-4.641H6.839V24.062z"/>
<path d="M10.596,46.652H9.833V47.8H8.979v-1.147H6.182l2.915-4.322h0.737v3.543h0.762V46.652z M7.547,45.873h1.432v-2.136
	L7.547,45.873z"/>
<path d="M7.509,61.241l1.759-0.696v5.529H8.414V61.71l-0.904,0.327V61.241z"/>
<path d="M7.216,79.297c0.302-0.336,0.779-0.545,1.39-0.545c0.612,0,1.089,0.209,1.382,0.545c0.302,0.326,0.486,0.846,0.553,1.381
	c0.076,0.537,0.076,1.257,0,1.793c-0.143,1.098-0.678,1.91-1.935,1.91c-0.771,0-1.306-0.293-1.6-0.83
	c-0.293-0.535-0.402-1.146-0.402-1.977C6.604,80.637,6.755,79.807,7.216,79.297z M9.746,81.574c0-1.314-0.377-1.968-1.14-1.968
	c-0.762,0-1.147,0.653-1.147,1.968s0.386,1.969,1.147,1.969C9.369,83.543,9.746,82.889,9.746,81.574z"/>
<g>
	<path fill="#CCCCCC" d="M10.171,5.62c0.037,0.154,0.018,0.29-0.055,0.407c-0.073,0.118-0.187,0.194-0.341,0.231
		c-0.33,0.066-0.558-0.084-0.682-0.451C8.983,5.499,8.843,5.29,8.675,5.18c-0.169-0.11-0.393-0.165-0.671-0.165
		c-0.337,0-0.614,0.115-0.831,0.346C6.957,5.592,6.849,5.917,6.849,6.334v1.694h1.287c0.095,0,0.176,0.033,0.242,0.099
		C8.444,8.193,8.477,8.274,8.477,8.37S8.444,8.544,8.378,8.606C8.312,8.668,8.231,8.7,8.136,8.7H6.849v1.804h2.178
		c0.007,0,0.022,0,0.044,0c0.301,0,0.469-0.069,0.506-0.209c0.007-0.022,0.011-0.047,0.011-0.077v-0.044
		c0-0.154,0.053-0.286,0.159-0.396c0.106-0.11,0.237-0.165,0.391-0.165c0.161,0,0.297,0.055,0.407,0.165
		c0.11,0.11,0.165,0.242,0.165,0.396v0.055c0,0.389-0.103,0.711-0.308,0.968c-0.206,0.256-0.484,0.385-0.836,0.385H5.155
		c-0.147,0-0.273-0.051-0.379-0.154c-0.106-0.103-0.16-0.228-0.16-0.374c0-0.154,0.053-0.284,0.16-0.391
		c0.106-0.106,0.232-0.16,0.379-0.16h0.572V8.7H5.155c-0.095,0-0.176-0.031-0.242-0.094C4.847,8.544,4.814,8.465,4.814,8.37
		s0.033-0.176,0.099-0.242S5.06,8.028,5.155,8.028h0.572V6.334c0-0.77,0.215-1.366,0.644-1.788c0.429-0.421,0.974-0.632,1.634-0.632
		c0.528,0,0.988,0.152,1.38,0.457C9.776,4.675,10.039,5.091,10.171,5.62z"/>
	<path fill="#CCCCCC" d="M19.18,5.19c0.088,0.118,0.121,0.248,0.099,0.391s-0.095,0.262-0.22,0.357
		c-0.132,0.095-0.273,0.128-0.423,0.099s-0.273-0.103-0.369-0.22c-0.249-0.308-0.564-0.462-0.946-0.462
		c-0.491,0-0.889,0.25-1.193,0.748c-0.305,0.499-0.438,1.093-0.402,1.782c0.11-0.228,0.306-0.42,0.589-0.578
		c0.282-0.158,0.6-0.236,0.951-0.236c0.66,0,1.201,0.212,1.623,0.638s0.633,0.99,0.633,1.694c-0.022,0.675-0.255,1.225-0.699,1.65
		s-1.028,0.638-1.754,0.638c-0.646,0-1.187-0.226-1.623-0.676c-0.437-0.451-0.684-1.051-0.743-1.799
		c-0.044-0.374-0.055-0.757-0.033-1.149c0.022-0.392,0.055-0.771,0.099-1.138c0.044-0.367,0.133-0.713,0.269-1.04
		s0.299-0.609,0.49-0.847c0.19-0.238,0.443-0.425,0.759-0.561s0.675-0.196,1.078-0.182C18.157,4.329,18.762,4.626,19.18,5.19z
		 M18.388,9.349c0-0.352-0.11-0.642-0.33-0.869c-0.22-0.227-0.506-0.348-0.858-0.363c-0.359-0.015-0.671,0.09-0.935,0.313
		c-0.264,0.224-0.396,0.5-0.396,0.831c0,0.367,0.121,0.675,0.363,0.924c0.242,0.25,0.535,0.378,0.88,0.385
		c0.411-0.007,0.726-0.123,0.946-0.346C18.278,10,18.388,9.708,18.388,9.349z"/>
	<path fill="#CCCCCC" d="M22.018,10.801c-0.029,0.528-0.226,1.014-0.588,1.457c-0.363,0.444-0.669,0.666-0.918,0.666
		c-0.22,0-0.33-0.084-0.33-0.253c0-0.125,0.033-0.227,0.099-0.308c0.308-0.374,0.491-0.935,0.55-1.683
		c0.007-0.147,0.07-0.271,0.187-0.374s0.249-0.154,0.396-0.154c0.176,0,0.321,0.055,0.435,0.165c0.113,0.11,0.17,0.25,0.17,0.418
		V10.801z"/>
	<path fill="#CCCCCC" d="M23.172,8.006c0-0.433,0.023-0.825,0.071-1.177s0.134-0.689,0.259-1.012
		c0.125-0.322,0.284-0.592,0.478-0.808s0.446-0.389,0.754-0.517c0.308-0.128,0.664-0.193,1.067-0.193s0.759,0.064,1.067,0.193
		s0.559,0.301,0.753,0.517s0.352,0.486,0.473,0.808c0.121,0.323,0.205,0.66,0.253,1.012s0.072,0.744,0.072,1.177
		c0,0.433-0.024,0.823-0.072,1.172c-0.048,0.348-0.132,0.682-0.253,1.001c-0.121,0.319-0.279,0.586-0.473,0.803
		s-0.445,0.389-0.753,0.517s-0.664,0.192-1.067,0.192c-0.506,0-0.935-0.093-1.287-0.28s-0.624-0.457-0.814-0.809
		c-0.191-0.352-0.326-0.737-0.407-1.155C23.212,9.03,23.172,8.549,23.172,8.006z M25.801,10.591c0.997,0,1.496-0.861,1.496-2.585
		c0-1.723-0.499-2.585-1.496-2.585c-1.005,0-1.507,0.862-1.507,2.585C24.294,9.73,24.796,10.591,25.801,10.591z"/>
	<path fill="#CCCCCC" d="M29.75,8.006c0-0.433,0.023-0.825,0.071-1.177s0.134-0.689,0.259-1.012
		c0.125-0.322,0.284-0.592,0.478-0.808s0.446-0.389,0.754-0.517c0.308-0.128,0.664-0.193,1.067-0.193s0.759,0.064,1.067,0.193
		s0.559,0.301,0.753,0.517s0.352,0.486,0.473,0.808c0.121,0.323,0.205,0.66,0.253,1.012s0.072,0.744,0.072,1.177
		c0,0.433-0.024,0.823-0.072,1.172c-0.048,0.348-0.132,0.682-0.253,1.001c-0.121,0.319-0.279,0.586-0.473,0.803
		s-0.445,0.389-0.753,0.517s-0.664,0.192-1.067,0.192c-0.506,0-0.935-0.093-1.287-0.28s-0.624-0.457-0.814-0.809
		c-0.191-0.352-0.326-0.737-0.407-1.155C29.791,9.03,29.75,8.549,29.75,8.006z M32.379,10.591c0.997,0,1.496-0.861,1.496-2.585
		c0-1.723-0.499-2.585-1.496-2.585c-1.005,0-1.507,0.862-1.507,2.585C30.873,9.73,31.375,10.591,32.379,10.591z"/>
	<path fill="#CCCCCC" d="M36.328,8.006c0-0.433,0.023-0.825,0.071-1.177s0.134-0.689,0.259-1.012
		c0.125-0.322,0.284-0.592,0.478-0.808s0.446-0.389,0.754-0.517c0.308-0.128,0.664-0.193,1.067-0.193s0.759,0.064,1.067,0.193
		s0.559,0.301,0.753,0.517s0.352,0.486,0.473,0.808c0.121,0.323,0.205,0.66,0.253,1.012s0.072,0.744,0.072,1.177
		c0,0.433-0.024,0.823-0.072,1.172c-0.048,0.348-0.132,0.682-0.253,1.001c-0.121,0.319-0.279,0.586-0.473,0.803
		s-0.445,0.389-0.753,0.517s-0.664,0.192-1.067,0.192c-0.506,0-0.935-0.093-1.287-0.28s-0.624-0.457-0.814-0.809
		c-0.191-0.352-0.326-0.737-0.407-1.155C36.368,9.03,36.328,8.549,36.328,8.006z M38.957,10.591c0.997,0,1.496-0.861,1.496-2.585
		c0-1.723-0.499-2.585-1.496-2.585c-1.005,0-1.507,0.862-1.507,2.585C37.45,9.73,37.952,10.591,38.957,10.591z"/>
</g>
<g>
	<polyline fill="none" stroke="#FFFFFF" stroke-linecap="round" stroke-linejoin="round" stroke-miterlimit="10" points="
		44.957,79.407 47.117,81.566 44.957,83.726 	"/>
	
		<line fill="none" stroke="#FFFFFF" stroke-linecap="round" stroke-linejoin="round" stroke-miterlimit="10" x1="47.117" y1="81.566" x2="42.628" y2="81.566"/>
</g>
</svg>
