<?xml version="1.0" encoding="utf-8"?>
<!-- Generator: Adobe Illustrator 16.0.4, SVG Export Plug-In . SVG Version: 6.00 Build 0)  -->
<!DOCTYPE svg PUBLIC "-//W3C//DTD SVG 1.1//EN" "http://www.w3.org/Graphics/SVG/1.1/DTD/svg11.dtd">
<svg version="1.1" id="Layer_1" xmlns="http://www.w3.org/2000/svg" xmlns:xlink="http://www.w3.org/1999/xlink" x="0px" y="0px"
	 width="20px" height="40px" viewBox="0 0 20 40" enable-background="new 0 0 20 40" xml:space="preserve">
<path fill="#FFFFFF" d="M0,0v40h16.199c2.1,0,3.801-1.699,3.801-3.799v-32.4C20,1.699,18.299,0,16.199,0H0z M3.004,20.004
	c0-0.545,0.217-1.066,0.602-1.451l9.189-9.189c0.801-0.801,2.1-0.801,2.9,0c0.803,0.803,0.803,2.102,0,2.902l-7.738,7.738
	l7.736,7.734c0.803,0.803,0.803,2.1,0,2.902c-0.4,0.4-0.926,0.602-1.451,0.602c-0.523,0-1.049-0.201-1.449-0.602l-9.188-9.186
	C3.221,21.07,3.004,20.547,3.004,20.004z"/>
</svg>
