<?xml version="1.0" encoding="utf-8"?>
<!-- Generator: Adobe Illustrator 16.0.4, SVG Export Plug-In . SVG Version: 6.00 Build 0)  -->
<!DOCTYPE svg PUBLIC "-//W3C//DTD SVG 1.1//EN" "http://www.w3.org/Graphics/SVG/1.1/DTD/svg11.dtd">
<svg version="1.1" id="Layer_1" xmlns="http://www.w3.org/2000/svg" xmlns:xlink="http://www.w3.org/1999/xlink" x="0px" y="0px"
	 width="20px" height="40px" viewBox="0 0 20 40" enable-background="new 0 0 20 40" xml:space="preserve">
<path fill="#FFFFFF" d="M3.801,0C1.701,0,0,1.699,0,3.801v32.4C0,38.301,1.701,40,3.801,40H20V0H3.801z M16.395,21.455l-9.188,9.186
	c-0.4,0.4-0.926,0.602-1.449,0.602c-0.525,0-1.051-0.201-1.451-0.602c-0.803-0.803-0.803-2.1,0-2.902l7.736-7.734l-7.738-7.738
	c-0.803-0.801-0.803-2.1,0-2.902c0.801-0.801,2.1-0.801,2.9,0l9.189,9.189c0.385,0.385,0.602,0.906,0.602,1.451
	C16.996,20.547,16.779,21.07,16.395,21.455z"/>
</svg>
