<?xml version="1.0" encoding="utf-8"?>
<!-- Generator: Adobe Illustrator 16.0.4, SVG Export Plug-In . SVG Version: 6.00 Build 0)  -->
<!DOCTYPE svg PUBLIC "-//W3C//DTD SVG 1.1//EN" "http://www.w3.org/Graphics/SVG/1.1/DTD/svg11.dtd">
<svg version="1.1" id="Layer_1" xmlns="http://www.w3.org/2000/svg" xmlns:xlink="http://www.w3.org/1999/xlink" x="0px" y="0px"
	 width="72px" height="32px" viewBox="0 0 72 32" enable-background="new 0 0 72 32" xml:space="preserve">
<g>
	<path fill="none" d="M39.005,19.86C39.325,19.942,39.655,20,40,20c2.209,0,4-1.791,4-4s-1.791-4-4-4
		c-0.345,0-0.675,0.058-0.994,0.14C39.638,13.285,40,14.6,40,16S39.638,18.715,39.005,19.86z"/>
	<path fill="none" d="M32.995,12.14C32.675,12.058,32.345,12,32,12c-2.209,0-4,1.791-4,4s1.791,4,4,4
		c0.345,0,0.675-0.058,0.994-0.14C32.362,18.716,32,17.4,32,16C32,14.6,32.362,13.285,32.995,12.14z"/>
	<path fill="#008F0D" d="M36,16c0,1.863,1.28,3.416,3.005,3.86C39.638,18.715,40,17.4,40,16s-0.362-2.715-0.994-3.86
		C37.281,12.584,36,14.136,36,16z"/>
	<path fill="#44A4FF" d="M32.994,19.86C32.675,19.942,32.345,20,32,20c-2.209,0-4-1.791-4-4s1.791-4,4-4
		c0.345,0,0.675,0.058,0.995,0.14c0.704-1.274,1.747-2.332,3.005-3.061C34.822,8.397,33.459,8,32,8c-4.418,0-8,3.582-8,8
		c0,4.417,3.582,8,8,8c1.459,0,2.822-0.396,4-1.079C34.741,22.191,33.698,21.135,32.994,19.86z"/>
	<path fill="#008F0D" d="M32.995,12.14C32.362,13.285,32,14.6,32,16c0,1.4,0.362,2.715,0.994,3.86C34.719,19.416,36,17.863,36,16
		C36,14.136,34.72,12.584,32.995,12.14z"/>
	<path fill="#FF440A" d="M40,8c-1.459,0-2.822,0.397-4,1.079c1.258,0.729,2.302,1.786,3.006,3.061C39.325,12.058,39.655,12,40,12
		c2.209,0,4,1.791,4,4s-1.791,4-4,4c-0.345,0-0.675-0.058-0.995-0.14c-0.704,1.274-1.748,2.331-3.005,3.061
		C37.178,23.604,38.541,24,40,24c4.417,0,8-3.582,8-8C48,11.583,44.417,8,40,8z"/>
	<path fill="#004206" d="M39.005,19.86C37.28,19.416,36,17.863,36,16c0,1.863-1.281,3.416-3.006,3.86
		c0.704,1.274,1.747,2.331,3.006,3.061C37.258,22.191,38.302,21.135,39.005,19.86z"/>
	<path fill="#004206" d="M32.995,12.14C34.72,12.584,36,14.136,36,16c0-1.864,1.281-3.416,3.006-3.86
		C38.302,10.865,37.258,9.808,36,9.079C34.742,9.808,33.698,10.865,32.995,12.14z"/>
</g>
</svg>
