<?xml version="1.0" encoding="utf-8"?>
<!-- Generator: Adobe Illustrator 16.0.4, SVG Export Plug-In . SVG Version: 6.00 Build 0)  -->
<!DOCTYPE svg PUBLIC "-//W3C//DTD SVG 1.1//EN" "http://www.w3.org/Graphics/SVG/1.1/DTD/svg11.dtd">
<svg version="1.1" id="Layer_1" xmlns="http://www.w3.org/2000/svg" xmlns:xlink="http://www.w3.org/1999/xlink" x="0px" y="0px"
	 width="72px" height="32px" viewBox="0 0 72 32" enable-background="new 0 0 72 32" xml:space="preserve">
<path fill="#44A4FF" d="M20,0C11.164,0,4,7.164,4,16c0,8.837,7.164,16,16,16s16-7.163,16-16C36,7.164,28.836,0,20,0z M20,28
	c-6.627,0-12-5.372-12-12C8,9.373,13.373,4,20,4s12,5.373,12,12C32,22.628,26.627,28,20,28z"/>
<path fill="#FF440A" d="M52,0c-8.836,0-16,7.164-16,16c0,8.837,7.164,16,16,16c8.837,0,16-7.163,16-16C68,7.164,60.837,0,52,0z
	 M52,28c-6.627,0-12-5.372-12-12S45.373,4,52,4c6.628,0,12,5.373,12,12C64,22.628,58.628,28,52,28z"/>
</svg>
