<?xml version="1.0" encoding="utf-8"?>
<!-- Generator: Adobe Illustrator 16.0.4, SVG Export Plug-In . SVG Version: 6.00 Build 0)  -->
<!DOCTYPE svg PUBLIC "-//W3C//DTD SVG 1.1//EN" "http://www.w3.org/Graphics/SVG/1.1/DTD/svg11.dtd">
<svg version="1.1" id="Layer_1" xmlns="http://www.w3.org/2000/svg" xmlns:xlink="http://www.w3.org/1999/xlink" x="0px" y="0px"
	 width="72px" height="32px" viewBox="0 0 72 32" enable-background="new 0 0 72 32" xml:space="preserve">
<g>
	<path fill="none" d="M38.502,21.801C39.936,23.16,41.868,24,44,24c4.417,0,8-3.582,8-8c0-4.417-3.583-8-8-8
		c-2.132,0-4.063,0.839-5.498,2.199C39.454,11.919,40,13.895,40,16C40,18.104,39.454,20.081,38.502,21.801z"/>
	<path fill="none" d="M33.498,10.199C32.064,8.839,30.132,8,28,8c-4.418,0-8,3.582-8,8c0,4.417,3.582,8,8,8
		c2.132,0,4.064-0.84,5.498-2.199C32.546,20.08,32,18.104,32,16C32,13.895,32.546,11.919,33.498,10.199z"/>
	<path fill="#008F0D" d="M36,16c0,2.286,0.964,4.343,2.502,5.801C39.454,20.081,40,18.104,40,16c0-2.105-0.546-4.081-1.498-5.801
		C36.964,11.657,36,13.714,36,16z"/>
	<path fill="#44A4FF" d="M33.498,21.801C32.064,23.16,30.132,24,28,24c-4.418,0-8-3.583-8-8c0-4.418,3.582-8,8-8
		c2.132,0,4.064,0.839,5.498,2.199c0.653-1.18,1.506-2.231,2.502-3.125C33.876,5.169,31.078,4,28,4c-6.627,0-12,5.373-12,12
		c0,6.626,5.373,12,12,12c3.078,0,5.876-1.169,8-3.074C35.004,24.031,34.151,22.98,33.498,21.801z"/>
	<path fill="#008F0D" d="M33.498,10.199C32.546,11.919,32,13.895,32,16c0,2.104,0.546,4.08,1.498,5.801
		C35.036,20.343,36,18.285,36,16C36,13.714,35.036,11.657,33.498,10.199z"/>
	<path fill="#FF440A" d="M44,4c-3.077,0-5.875,1.169-8,3.074c0.997,0.894,1.848,1.945,2.501,3.125C39.937,8.839,41.868,8,44,8
		c4.417,0,8,3.583,8,8c0,4.418-3.583,8-8,8c-2.132,0-4.064-0.84-5.498-2.199c-0.653,1.18-1.505,2.23-2.501,3.125
		C38.125,26.831,40.923,28,44,28c6.626,0,12-5.374,12-12C56,9.373,50.626,4,44,4z"/>
	<path fill="#004206" d="M33.498,10.199C35.036,11.657,36,13.714,36,16c0-2.286,0.964-4.343,2.502-5.801
		c-0.653-1.18-1.505-2.23-2.501-3.125C35.004,7.968,34.151,9.019,33.498,10.199z"/>
	<path fill="#004206" d="M38.502,21.801C36.964,20.343,36,18.286,36,16c0,2.285-0.964,4.343-2.502,5.801
		c0.653,1.18,1.506,2.23,2.502,3.125C36.997,24.031,37.849,22.98,38.502,21.801z"/>
</g>
</svg>
