<?xml version="1.0" encoding="utf-8"?>
<!-- Generator: Adobe Illustrator 16.0.4, SVG Export Plug-In . SVG Version: 6.00 Build 0)  -->
<!DOCTYPE svg PUBLIC "-//W3C//DTD SVG 1.1//EN" "http://www.w3.org/Graphics/SVG/1.1/DTD/svg11.dtd">
<svg version="1.1" id="Layer_1" xmlns="http://www.w3.org/2000/svg" xmlns:xlink="http://www.w3.org/1999/xlink" x="0px" y="0px"
	 width="72px" height="32px" viewBox="0 0 72 32" enable-background="new 0 0 72 32" xml:space="preserve">
<g>
	<path fill="none" d="M40,16c0-3.549-1.551-6.729-4-8.926C33.55,9.271,32,12.45,32,16s1.55,6.729,4,8.927
		C38.449,22.729,40,19.55,40,16z"/>
	<path fill="none" d="M39.492,27.117C40.885,27.682,42.404,28,44,28c6.628,0,12-5.372,12-12c0-6.627-5.372-12-12-12
		c-1.596,0-3.115,0.318-4.508,0.883C42.278,7.763,44,11.678,44,16S42.278,24.237,39.492,27.117z"/>
	<path fill="none" d="M32.508,4.883C31.115,4.318,29.596,4,28,4c-6.627,0-12,5.373-12,12c0,6.628,5.373,12,12,12
		c1.595,0,3.115-0.318,4.507-0.883C29.722,24.237,28,20.322,28,16S29.722,7.763,32.508,4.883z"/>
	<path fill="#008F0D" d="M40,16c0,3.55-1.551,6.729-4,8.927c1.023,0.917,2.198,1.665,3.492,2.19C42.278,24.237,44,20.322,44,16
		s-1.722-8.237-4.508-11.117c-1.294,0.525-2.47,1.273-3.492,2.19C38.449,9.271,40,12.451,40,16z"/>
	<path fill="#44A4FF" d="M32.507,27.117C31.115,27.682,29.595,28,28,28c-6.627,0-12-5.372-12-12c0-6.627,5.373-12,12-12
		c1.596,0,3.115,0.318,4.508,0.883C33.536,3.82,34.711,2.905,36,2.158C33.645,0.794,30.917,0,28,0c-8.836,0-16,7.164-16,16
		c0,8.837,7.164,16,16,16c2.917,0,5.645-0.794,8-2.158C34.711,29.096,33.536,28.18,32.507,27.117z"/>
	<path fill="#008F0D" d="M32,16c0-3.55,1.55-6.729,4-8.926c-1.023-0.917-2.199-1.665-3.492-2.19C29.722,7.763,28,11.678,28,16
		s1.722,8.237,4.507,11.117c1.294-0.525,2.47-1.273,3.493-2.19C33.55,22.729,32,19.55,32,16z"/>
	<path fill="#FF440A" d="M44,0c-2.918,0-5.645,0.794-8,2.158c1.288,0.747,2.464,1.662,3.492,2.725C40.885,4.318,42.404,4,44,4
		c6.628,0,12,5.373,12,12c0,6.628-5.372,12-12,12c-1.596,0-3.115-0.318-4.508-0.883c-1.028,1.062-2.204,1.979-3.492,2.725
		C38.355,31.206,41.082,32,44,32c8.837,0,16-7.163,16-16C60,7.164,52.837,0,44,0z"/>
	<path fill="#004206" d="M39.492,27.117c-1.294-0.525-2.469-1.273-3.492-2.19c-1.023,0.917-2.199,1.665-3.493,2.19
		c1.029,1.062,2.204,1.979,3.493,2.725C37.288,29.096,38.464,28.18,39.492,27.117z"/>
	<path fill="#004206" d="M32.508,4.883c1.293,0.525,2.469,1.273,3.492,2.19c1.022-0.917,2.198-1.665,3.492-2.19
		C38.464,3.82,37.288,2.905,36,2.158C34.711,2.905,33.536,3.82,32.508,4.883z"/>
</g>
<path fill="#00FF18" d="M36,7.074c2.449,2.197,4,5.377,4,8.926c0,3.55-1.551,6.729-4,8.927c-2.449-2.197-4-5.377-4-8.927
	S33.551,9.271,36,7.074z"/>
</svg>
