<?xml version="1.0" encoding="utf-8"?>
<!-- Generator: Adobe Illustrator 16.0.4, SVG Export Plug-In . SVG Version: 6.00 Build 0)  -->
<!DOCTYPE svg PUBLIC "-//W3C//DTD SVG 1.1//EN" "http://www.w3.org/Graphics/SVG/1.1/DTD/svg11.dtd">
<svg version="1.1" id="Layer_1" xmlns="http://www.w3.org/2000/svg" xmlns:xlink="http://www.w3.org/1999/xlink" x="0px" y="0px"
	 width="72px" height="32px" viewBox="0 0 72 32" enable-background="new 0 0 72 32" xml:space="preserve">
<path fill="#00FF18" d="M36,13.008c0.811,0.727,1.324,1.855,1.324,3.029c0,1.175-0.514,2.228-1.324,2.955
	c-0.81-0.727-1.324-1.779-1.324-2.955C34.676,14.863,35.19,13.735,36,13.008z"/>
<g>
	<path fill="none" d="M36,13.38c-0.615,0.703-1,1.613-1,2.62c0,1.008,0.385,1.917,1,2.62c0.615-0.703,1-1.612,1-2.62
		C37,14.993,36.615,14.083,36,13.38z"/>
	<path fill="none" d="M31.992,12.144C30.274,12.593,29,14.142,29,16s1.274,3.406,2.992,3.855C31.361,18.712,31,17.398,31,16
		C31,14.602,31.361,13.288,31.992,12.144z"/>
	<path fill="none" d="M40.008,19.856C41.726,19.407,43,17.858,43,16s-1.274-3.407-2.992-3.856C40.639,13.288,41,14.602,41,16
		S40.639,18.712,40.008,19.856z"/>
	<path fill="#008F0D" d="M36,13.38c0.615,0.703,1,1.613,1,2.62c0,1.008-0.385,1.917-1,2.62c0.733,0.839,1.798,1.38,3,1.38
		c0.351,0,0.684-0.06,1.008-0.144C40.639,18.712,41,17.398,41,16s-0.361-2.712-0.992-3.856C39.685,12.06,39.351,12,39,12
		C37.798,12,36.733,12.541,36,13.38z"/>
	<path fill="#44A4FF" d="M31.992,19.855C30.274,19.406,29,17.858,29,16s1.274-3.407,2.992-3.856C32.875,10.543,34.291,9.28,36,8.587
		C35.073,8.211,34.062,8,33,8c-4.418,0-8,3.582-8,8c0,4.417,3.582,8,8,8c1.062,0,2.073-0.211,3-0.587
		C34.291,22.721,32.875,21.457,31.992,19.855z"/>
	<path fill="#008F0D" d="M36,13.38C35.267,12.541,34.202,12,33,12c-0.351,0-0.684,0.06-1.008,0.144C31.361,13.288,31,14.602,31,16
		c0,1.398,0.361,2.711,0.992,3.855C32.315,19.94,32.649,20,33,20c1.202,0,2.267-0.541,3-1.38c-0.615-0.703-1-1.612-1-2.62
		C35,14.993,35.385,14.083,36,13.38z"/>
	<path fill="#FF440A" d="M39,8c-1.062,0-2.073,0.211-3,0.587c1.709,0.693,3.125,1.956,4.008,3.557C41.726,12.593,43,14.142,43,16
		s-1.274,3.407-2.992,3.856c-0.883,1.601-2.299,2.864-4.008,3.557C36.927,23.789,37.938,24,39,24c4.417,0,8-3.582,8-8
		C47,11.583,43.417,8,39,8z"/>
	<path fill="#004206" d="M31.992,12.144C32.316,12.06,32.649,12,33,12c1.202,0,2.267,0.541,3,1.38c0.733-0.839,1.798-1.38,3-1.38
		c0.351,0,0.685,0.06,1.008,0.144C39.125,10.543,37.709,9.28,36,8.587C34.291,9.28,32.875,10.543,31.992,12.144z"/>
	<path fill="#004206" d="M40.008,19.856C39.684,19.94,39.351,20,39,20c-1.202,0-2.267-0.541-3-1.38C35.267,19.459,34.202,20,33,20
		c-0.351,0-0.685-0.06-1.008-0.145c0.883,1.602,2.299,2.865,4.008,3.558C37.709,22.721,39.125,21.457,40.008,19.856z"/>
</g>
</svg>
