<?xml version="1.0" encoding="utf-8"?>
<!-- Generator: Adobe Illustrator 16.0.4, SVG Export Plug-In . SVG Version: 6.00 Build 0)  -->
<!DOCTYPE svg PUBLIC "-//W3C//DTD SVG 1.1//EN" "http://www.w3.org/Graphics/SVG/1.1/DTD/svg11.dtd">
<svg version="1.1" id="Layer_1" xmlns="http://www.w3.org/2000/svg" xmlns:xlink="http://www.w3.org/1999/xlink" x="0px" y="0px"
	 width="72px" height="32px" viewBox="0 0 72 32" enable-background="new 0 0 72 32" xml:space="preserve">
<path fill="#44A4FF" d="M28,12c-2.209,0-4,1.791-4,4s1.791,4,4,4s4-1.791,4-4S30.209,12,28,12z M28,24c-4.418,0-8-3.583-8-8
	c0-4.418,3.582-8,8-8s8,3.582,8,8C36,20.417,32.418,24,28,24z"/>
<path fill="#FF440A" d="M44,12c-2.209,0-4,1.791-4,4s1.791,4,4,4s4-1.791,4-4S46.209,12,44,12z M44,24c-4.418,0-8-3.582-8-8
	c0-4.418,3.582-8,8-8c4.417,0,8,3.583,8,8C52,20.418,48.417,24,44,24z"/>
</svg>
