<?xml version="1.0" encoding="utf-8"?>
<!-- Generator: Adobe Illustrator 16.0.4, SVG Export Plug-In . SVG Version: 6.00 Build 0)  -->
<!DOCTYPE svg PUBLIC "-//W3C//DTD SVG 1.1//EN" "http://www.w3.org/Graphics/SVG/1.1/DTD/svg11.dtd">
<svg version="1.1" id="Layer_1" xmlns="http://www.w3.org/2000/svg" xmlns:xlink="http://www.w3.org/1999/xlink" x="0px" y="0px"
	 width="72px" height="32px" viewBox="0 0 72 32" enable-background="new 0 0 72 32" xml:space="preserve">
<path fill="#44A4FF" d="M24,4c-6.627,0-12,5.373-12,12c0,6.626,5.373,12,12,12s12-5.374,12-12C36,9.373,30.627,4,24,4z M24,24
	c-4.418,0-8-3.583-8-8c0-4.418,3.582-8,8-8s8,3.582,8,8C32,20.417,28.418,24,24,24z"/>
<path fill="#FF440A" d="M48,4c-6.625,0-12,5.373-12,12c0,6.626,5.375,12,12,12c6.626,0,12-5.374,12-12C60,9.373,54.626,4,48,4z
	 M48,24c-4.418,0-8-3.582-8-8s3.582-8,8-8c4.417,0,8,3.583,8,8C56,20.418,52.417,24,48,24z"/>
</svg>
