<?xml version="1.0" encoding="utf-8"?>
<!-- Generator: Adobe Illustrator 16.0.4, SVG Export Plug-In . SVG Version: 6.00 Build 0)  -->
<!DOCTYPE svg PUBLIC "-//W3C//DTD SVG 1.1//EN" "http://www.w3.org/Graphics/SVG/1.1/DTD/svg11.dtd">
<svg version="1.1" id="Layer_1" xmlns="http://www.w3.org/2000/svg" xmlns:xlink="http://www.w3.org/1999/xlink" x="0px" y="0px"
	 width="72px" height="32px" viewBox="0 0 72 32" enable-background="new 0 0 72 32" xml:space="preserve">
<path fill="#44A4FF" d="M16,0C7.164,0,0,7.164,0,16c0,8.837,7.164,16,16,16s16-7.163,16-16C32,7.164,24.836,0,16,0z M16,28
	C9.373,28,4,22.628,4,16C4,9.373,9.373,4,16,4s12,5.373,12,12C28,22.628,22.627,28,16,28z"/>
<path fill="#FF440A" d="M56,0c-8.836,0-16,7.164-16,16c0,8.837,7.164,16,16,16c8.837,0,16-7.163,16-16C72,7.164,64.837,0,56,0z
	 M56,28c-6.627,0-12-5.372-12-12c0-6.628,5.373-12,12-12c6.628,0,12,5.373,12,12C68,22.628,62.628,28,56,28z"/>
</svg>
