<?xml version="1.0" encoding="utf-8"?>
<!-- Generator: Adobe Illustrator 16.0.4, SVG Export Plug-In . SVG Version: 6.00 Build 0)  -->
<!DOCTYPE svg PUBLIC "-//W3C//DTD SVG 1.1//EN" "http://www.w3.org/Graphics/SVG/1.1/DTD/svg11.dtd">
<svg version="1.1" id="Layer_1" xmlns="http://www.w3.org/2000/svg" xmlns:xlink="http://www.w3.org/1999/xlink" x="0px" y="0px"
	 width="72px" height="32px" viewBox="0 0 72 32" enable-background="new 0 0 72 32" xml:space="preserve">
<path fill="#00FF18" d="M36,10.721c1.43,1.283,2.336,3.274,2.336,5.346c0,2.073-0.906,3.929-2.336,5.212
	c-1.43-1.283-2.335-3.14-2.335-5.212S34.57,12.003,36,10.721z"/>
<g>
	<path fill="none" d="M36,10.721c-1.241,1.41-2,3.254-2,5.279s0.759,3.869,2,5.279c1.241-1.41,2-3.254,2-5.279
		S37.241,12.13,36,10.721z"/>
	<path fill="none" d="M32.667,8.465C31.832,8.169,30.937,8,30,8c-4.418,0-8,3.582-8,8c0,4.417,3.582,8,8,8
		c0.937,0,1.832-0.17,2.668-0.466C31.002,21.475,30,18.854,30,16C30,13.145,31.002,10.525,32.667,8.465z"/>
	<path fill="none" d="M39.333,23.535C40.168,23.831,41.063,24,42,24c4.417,0,8-3.582,8-8c0-4.417-3.583-8-8-8
		c-0.937,0-1.832,0.169-2.667,0.465C40.998,10.525,42,13.145,42,16S40.998,21.475,39.333,23.535z"/>
	<path fill="#008F0D" d="M36,10.721c1.241,1.41,2,3.254,2,5.279s-0.759,3.869-2,5.279c0.892,1.013,2.034,1.796,3.333,2.256
		C40.998,21.475,42,18.855,42,16s-1.002-5.475-2.667-7.535C38.034,8.925,36.893,9.708,36,10.721z"/>
	<path fill="#44A4FF" d="M32.668,23.534C31.832,23.83,30.937,24,30,24c-4.418,0-8-3.583-8-8c0-4.418,3.582-8,8-8
		c0.937,0,1.832,0.169,2.667,0.465C33.591,7.323,34.722,6.359,36,5.619C34.234,4.596,32.188,4,30,4c-6.627,0-12,5.373-12,12
		c0,6.626,5.373,12,12,12c2.188,0,4.234-0.596,6-1.619C34.723,25.641,33.591,24.677,32.668,23.534z"/>
	<path fill="#FF440A" d="M42,4c-2.188,0-4.233,0.596-6,1.619c1.278,0.74,2.409,1.704,3.333,2.846C40.168,8.169,41.063,8,42,8
		c4.417,0,8,3.583,8,8c0,4.418-3.583,8-8,8c-0.937,0-1.832-0.169-2.667-0.465c-0.924,1.142-2.055,2.105-3.333,2.846
		C37.767,27.404,39.812,28,42,28c6.626,0,12-5.374,12-12C54,9.373,48.626,4,42,4z"/>
	<path fill="#008F0D" d="M36,10.721c-0.892-1.013-2.034-1.795-3.333-2.255C31.002,10.525,30,13.145,30,16
		c0,2.854,1.002,5.475,2.668,7.534c1.298-0.46,2.44-1.242,3.332-2.255c-1.241-1.41-2-3.254-2-5.279S34.759,12.13,36,10.721z"/>
	<path fill="#004206" d="M39.333,23.535c-1.299-0.46-2.441-1.243-3.333-2.256c-0.892,1.013-2.034,1.795-3.332,2.255
		c0.923,1.143,2.055,2.106,3.333,2.847C37.278,25.641,38.409,24.677,39.333,23.535z"/>
	<path fill="#004206" d="M32.667,8.465c1.298,0.46,2.44,1.243,3.333,2.255c0.893-1.013,2.034-1.796,3.333-2.255
		C38.409,7.323,37.278,6.359,36,5.619C34.722,6.359,33.591,7.323,32.667,8.465z"/>
</g>
</svg>
