<?xml version="1.0" encoding="utf-8"?>
<!-- Generator: Adobe Illustrator 16.0.4, SVG Export Plug-In . SVG Version: 6.00 Build 0)  -->
<!DOCTYPE svg PUBLIC "-//W3C//DTD SVG 1.1//EN" "http://www.w3.org/Graphics/SVG/1.1/DTD/svg11.dtd">
<svg version="1.1" id="Layer_1" xmlns="http://www.w3.org/2000/svg" xmlns:xlink="http://www.w3.org/1999/xlink" x="0px" y="0px"
	 width="72px" height="32px" viewBox="0 0 72 32" enable-background="new 0 0 72 32" xml:space="preserve">
<path fill="#44A4FF" d="M16,4C9.373,4,4,9.373,4,16c0,6.626,5.373,12,12,12s12-5.374,12-12C28,9.373,22.627,4,16,4z M16,24
	c-4.418,0-8-3.583-8-8c0-4.418,3.582-8,8-8s8,3.582,8,8C24,20.417,20.418,24,16,24z"/>
<path fill="#FF440A" d="M56,4c-6.625,0-12,5.373-12,12c0,6.626,5.375,12,12,12c6.626,0,12-5.374,12-12C68,9.373,62.626,4,56,4z
	 M56,24c-4.418,0-8-3.582-8-8c0-4.418,3.582-8,8-8c4.417,0,8,3.583,8,8C64,20.418,60.417,24,56,24z"/>
</svg>
