<?xml version="1.0" encoding="utf-8"?>
<!-- Generator: Adobe Illustrator 16.0.4, SVG Export Plug-In . SVG Version: 6.00 Build 0)  -->
<!DOCTYPE svg PUBLIC "-//W3C//DTD SVG 1.1//EN" "http://www.w3.org/Graphics/SVG/1.1/DTD/svg11.dtd">
<svg version="1.1" id="Layer_1" xmlns="http://www.w3.org/2000/svg" xmlns:xlink="http://www.w3.org/1999/xlink" x="0px" y="0px"
	 width="72px" height="32px" viewBox="0 0 72 32" enable-background="new 0 0 72 32" xml:space="preserve">
<g>
	<path fill="none" d="M38.33,23.085C40.514,26.061,44.026,28,48,28c6.628,0,12-5.372,12-12c0-6.627-5.372-12-12-12
		c-3.974,0-7.486,1.94-9.67,4.916C39.389,11.054,40,13.453,40,16C40,18.548,39.389,20.947,38.33,23.085z"/>
	<path fill="none" d="M33.67,8.916C31.486,5.94,27.974,4,24,4c-6.627,0-12,5.373-12,12c0,6.628,5.373,12,12,12
		c3.974,0,7.486-1.939,9.67-4.915C32.611,20.947,32,18.548,32,16C32,13.453,32.611,11.054,33.67,8.916z"/>
	<path fill="#008F0D" d="M38.33,23.085C39.389,20.947,40,18.548,40,16c0-2.547-0.611-4.946-1.67-7.084
		C36.872,10.902,36,13.347,36,16S36.872,21.098,38.33,23.085z"/>
	<path fill="#44A4FF" d="M24,28c-6.627,0-12-5.372-12-12c0-6.627,5.373-12,12-12c3.974,0,7.486,1.94,9.67,4.916
		c0.625-1.262,1.409-2.428,2.33-3.474C33.068,2.112,28.785,0,24,0C15.164,0,8,7.164,8,16c0,8.837,7.164,16,16,16
		c4.785,0,9.068-2.111,12-5.441c-0.921-1.047-1.705-2.212-2.33-3.474C31.486,26.061,27.974,28,24,28z"/>
	<path fill="#FF440A" d="M48,0c-4.785,0-9.068,2.112-12,5.442c0.922,1.046,1.705,2.212,2.33,3.474C40.514,5.94,44.026,4,48,4
		c6.628,0,12,5.373,12,12c0,6.628-5.372,12-12,12c-3.974,0-7.486-1.939-9.67-4.915c-0.625,1.262-1.408,2.427-2.33,3.474
		C38.932,29.889,43.215,32,48,32c8.837,0,16-7.163,16-16C64,7.164,56.837,0,48,0z"/>
	<path fill="#008F0D" d="M32,16c0,2.548,0.611,4.947,1.67,7.085C35.128,21.098,36,18.653,36,16s-0.872-5.097-2.33-7.084
		C32.611,11.054,32,13.453,32,16z"/>
	<path fill="#004206" d="M36,16c0,2.653-0.872,5.098-2.33,7.085c0.625,1.262,1.409,2.427,2.33,3.474
		c0.922-1.047,1.705-2.212,2.33-3.474C36.872,21.098,36,18.653,36,16z"/>
	<path fill="#004206" d="M36,16c0-2.653,0.872-5.098,2.33-7.084C37.705,7.654,36.922,6.488,36,5.442
		c-0.921,1.046-1.705,2.212-2.33,3.474C35.128,10.903,36,13.347,36,16z"/>
</g>
</svg>
