<?xml version="1.0" encoding="utf-8"?>
<!-- Generator: Adobe Illustrator 16.0.4, SVG Export Plug-In . SVG Version: 6.00 Build 0)  -->
<!DOCTYPE svg PUBLIC "-//W3C//DTD SVG 1.1//EN" "http://www.w3.org/Graphics/SVG/1.1/DTD/svg11.dtd">
<svg version="1.1" id="Layer_1" xmlns="http://www.w3.org/2000/svg" xmlns:xlink="http://www.w3.org/1999/xlink" x="0px" y="0px"
	 width="195.116px" height="107.777px" viewBox="0 0 195.116 107.777" enable-background="new 0 0 195.116 107.777"
	 xml:space="preserve">
<g>
	<g>
		<defs>
			<path id="SVGID_1_" d="M-3.602,95.37c0,0,27.808-23.513,61.813-25.286s25.977,23.513,69.863,28.241
				c33.361,3.595,39.546,3.546,39.546,3.546l0.078,5.693H-2.723L-3.602,95.37z"/>
		</defs>
		<clipPath id="SVGID_2_">
			<use xlink:href="#SVGID_1_"  overflow="visible"/>
		</clipPath>
		<g clip-path="url(#SVGID_2_)">
			<rect x="0.905" y="32.599" fill="#44A4FF" width="1.812" height="74.966"/>
			<rect x="4.487" y="32.599" fill="#44A4FF" width="1.812" height="74.966"/>
			<rect x="8.069" y="32.599" fill="#44A4FF" width="1.812" height="74.966"/>
			<rect x="11.65" y="32.599" fill="#44A4FF" width="1.812" height="74.966"/>
			<rect x="15.232" y="32.599" fill="#44A4FF" width="1.812" height="74.966"/>
			<rect x="18.813" y="32.599" fill="#44A4FF" width="1.812" height="74.966"/>
			<rect x="22.395" y="32.599" fill="#44A4FF" width="1.812" height="74.966"/>
			<rect x="25.977" y="32.599" fill="#44A4FF" width="1.812" height="74.966"/>
			<rect x="29.558" y="32.599" fill="#44A4FF" width="1.812" height="74.966"/>
			<rect x="33.14" y="32.599" fill="#44A4FF" width="1.812" height="74.966"/>
			<rect x="36.722" y="32.599" fill="#44A4FF" width="1.812" height="74.966"/>
			<rect x="40.304" y="32.599" fill="#44A4FF" width="1.811" height="74.966"/>
			<rect x="43.885" y="32.599" fill="#44A4FF" width="1.812" height="74.966"/>
			<rect x="47.466" y="32.599" fill="#44A4FF" width="1.812" height="74.966"/>
			<rect x="51.048" y="32.599" fill="#44A4FF" width="1.812" height="74.966"/>
			<rect x="54.629" y="32.599" fill="#44A4FF" width="1.812" height="74.966"/>
			<rect x="58.211" y="32.599" fill="#44A4FF" width="1.812" height="74.966"/>
			<rect x="61.793" y="32.599" fill="#44A4FF" width="1.811" height="74.966"/>
			<rect x="65.375" y="32.599" fill="#44A4FF" width="1.812" height="74.966"/>
			<rect x="68.957" y="32.599" fill="#44A4FF" width="1.812" height="74.966"/>
			<rect x="72.539" y="32.599" fill="#44A4FF" width="1.811" height="74.966"/>
			<rect x="76.119" y="32.599" fill="#44A4FF" width="1.812" height="74.966"/>
			<rect x="79.701" y="32.599" fill="#44A4FF" width="1.812" height="74.966"/>
			<rect x="83.282" y="32.599" fill="#44A4FF" width="1.812" height="74.966"/>
			<rect x="86.864" y="32.599" fill="#44A4FF" width="1.812" height="74.966"/>
			<rect x="90.446" y="32.599" fill="#44A4FF" width="1.812" height="74.966"/>
			<rect x="94.028" y="32.599" fill="#44A4FF" width="1.812" height="74.966"/>
			<rect x="97.609" y="32.599" fill="#44A4FF" width="1.813" height="74.966"/>
			<rect x="101.192" y="32.599" fill="#44A4FF" width="1.811" height="74.966"/>
			<rect x="104.773" y="32.599" fill="#44A4FF" width="1.812" height="74.966"/>
			<rect x="108.355" y="32.599" fill="#44A4FF" width="1.812" height="74.966"/>
			<rect x="111.937" y="32.599" fill="#44A4FF" width="1.812" height="74.966"/>
			<rect x="115.518" y="32.599" fill="#44A4FF" width="1.812" height="74.966"/>
			<rect x="119.1" y="32.599" fill="#44A4FF" width="1.812" height="74.966"/>
			<rect x="122.682" y="32.599" fill="#44A4FF" width="1.812" height="74.966"/>
			<rect x="126.263" y="32.599" fill="#44A4FF" width="1.812" height="74.966"/>
			<rect x="129.844" y="32.599" fill="#44A4FF" width="1.812" height="74.966"/>
			<rect x="133.426" y="32.599" fill="#44A4FF" width="1.811" height="74.966"/>
			<rect x="137.008" y="32.599" fill="#44A4FF" width="1.811" height="74.966"/>
			<rect x="140.59" y="32.599" fill="#44A4FF" width="1.812" height="74.966"/>
			<rect x="144.172" y="32.599" fill="#44A4FF" width="1.811" height="74.966"/>
			<rect x="147.752" y="32.599" fill="#44A4FF" width="1.812" height="74.966"/>
			<rect x="151.334" y="32.599" fill="#44A4FF" width="1.812" height="74.966"/>
			<rect x="154.917" y="32.599" fill="#44A4FF" width="1.811" height="74.966"/>
			<rect x="158.498" y="32.599" fill="#44A4FF" width="1.812" height="74.966"/>
			<rect x="162.08" y="32.599" fill="#44A4FF" width="1.812" height="74.966"/>
			<rect x="165.662" y="32.599" fill="#44A4FF" width="1.812" height="74.966"/>
			<rect x="169.243" y="32.599" fill="#44A4FF" width="1.812" height="74.966"/>
			<rect x="172.825" y="32.599" fill="#44A4FF" width="1.812" height="74.966"/>
			<rect x="176.406" y="32.599" fill="#44A4FF" width="1.812" height="74.966"/>
			<rect x="179.987" y="32.599" fill="#44A4FF" width="1.812" height="74.966"/>
			<rect x="183.569" y="32.599" fill="#44A4FF" width="1.812" height="74.966"/>
			<rect x="187.151" y="32.599" fill="#44A4FF" width="1.811" height="74.966"/>
			<rect x="190.733" y="32.599" fill="#44A4FF" width="1.811" height="74.966"/>
			<rect x="194.314" y="32.599" fill="#44A4FF" width="1.812" height="74.966"/>
		</g>
	</g>
	<g>
		<defs>
			<path id="SVGID_3_" d="M196.381,84.077c0,0-22.193-33.552-49.23-27.722c-21.775,4.696-30.593,21.824-65.546,28.313
				c-26.569,4.932-26.446,16.549-26.446,16.549l0.087,6.56h140.437L196.381,84.077z"/>
		</defs>
		<clipPath id="SVGID_4_">
			<use xlink:href="#SVGID_3_"  overflow="visible"/>
		</clipPath>
		<g clip-path="url(#SVGID_4_)">
			<rect x="-0.888" y="32.812" fill="#FF440A" width="1.811" height="74.965"/>
			<rect x="2.694" y="32.812" fill="#FF440A" width="1.811" height="74.965"/>
			<rect x="6.275" y="32.812" fill="#FF440A" width="1.812" height="74.965"/>
			<rect x="9.856" y="32.812" fill="#FF440A" width="1.812" height="74.965"/>
			<rect x="13.438" y="32.812" fill="#FF440A" width="1.812" height="74.965"/>
			<rect x="17.02" y="32.812" fill="#FF440A" width="1.812" height="74.965"/>
			<rect x="20.602" y="32.812" fill="#FF440A" width="1.811" height="74.965"/>
			<rect x="24.183" y="32.812" fill="#FF440A" width="1.812" height="74.965"/>
			<rect x="27.765" y="32.812" fill="#FF440A" width="1.811" height="74.965"/>
			<rect x="31.346" y="32.812" fill="#FF440A" width="1.813" height="74.965"/>
			<rect x="34.928" y="32.812" fill="#FF440A" width="1.812" height="74.965"/>
			<rect x="38.509" y="32.812" fill="#FF440A" width="1.812" height="74.965"/>
			<rect x="42.091" y="32.812" fill="#FF440A" width="1.812" height="74.965"/>
			<rect x="45.673" y="32.812" fill="#FF440A" width="1.812" height="74.965"/>
			<rect x="49.255" y="32.812" fill="#FF440A" width="1.812" height="74.965"/>
			<rect x="52.836" y="32.812" fill="#FF440A" width="1.812" height="74.965"/>
			<rect x="56.417" y="32.812" fill="#FF440A" width="1.812" height="74.965"/>
			<rect x="60" y="32.812" fill="#FF440A" width="1.811" height="74.965"/>
			<rect x="63.581" y="32.812" fill="#FF440A" width="1.812" height="74.965"/>
			<rect x="67.163" y="32.812" fill="#FF440A" width="1.812" height="74.965"/>
			<rect x="70.745" y="32.812" fill="#FF440A" width="1.811" height="74.965"/>
			<rect x="74.326" y="32.812" fill="#FF440A" width="1.812" height="74.965"/>
			<rect x="77.908" y="32.812" fill="#FF440A" width="1.812" height="74.965"/>
			<rect x="81.489" y="32.812" fill="#FF440A" width="1.811" height="74.965"/>
			<rect x="85.071" y="32.812" fill="#FF440A" width="1.812" height="74.965"/>
			<rect x="88.652" y="32.812" fill="#FF440A" width="1.812" height="74.965"/>
			<rect x="92.233" y="32.812" fill="#FF440A" width="1.812" height="74.965"/>
			<rect x="95.815" y="32.812" fill="#FF440A" width="1.812" height="74.965"/>
			<rect x="99.399" y="32.812" fill="#FF440A" width="1.811" height="74.965"/>
			<rect x="102.98" y="32.812" fill="#FF440A" width="1.812" height="74.965"/>
			<rect x="106.561" y="32.812" fill="#FF440A" width="1.812" height="74.965"/>
			<rect x="110.143" y="32.812" fill="#FF440A" width="1.812" height="74.965"/>
			<rect x="113.724" y="32.812" fill="#FF440A" width="1.812" height="74.965"/>
			<rect x="117.306" y="32.812" fill="#FF440A" width="1.812" height="74.965"/>
			<rect x="120.888" y="32.812" fill="#FF440A" width="1.812" height="74.965"/>
			<rect x="124.469" y="32.812" fill="#FF440A" width="1.812" height="74.965"/>
			<rect x="128.051" y="32.812" fill="#FF440A" width="1.812" height="74.965"/>
			<rect x="131.633" y="32.812" fill="#FF440A" width="1.811" height="74.965"/>
			<rect x="135.214" y="32.812" fill="#FF440A" width="1.812" height="74.965"/>
			<rect x="138.795" y="32.812" fill="#FF440A" width="1.812" height="74.965"/>
			<rect x="142.377" y="32.812" fill="#FF440A" width="1.812" height="74.965"/>
			<rect x="145.959" y="32.812" fill="#FF440A" width="1.811" height="74.965"/>
			<rect x="149.542" y="32.812" fill="#FF440A" width="1.811" height="74.965"/>
			<rect x="153.123" y="32.812" fill="#FF440A" width="1.812" height="74.965"/>
			<rect x="156.704" y="32.812" fill="#FF440A" width="1.812" height="74.965"/>
			<rect x="160.286" y="32.812" fill="#FF440A" width="1.812" height="74.965"/>
			<rect x="163.868" y="32.812" fill="#FF440A" width="1.811" height="74.965"/>
			<rect x="167.449" y="32.812" fill="#FF440A" width="1.812" height="74.965"/>
			<rect x="171.031" y="32.812" fill="#FF440A" width="1.812" height="74.965"/>
			<rect x="174.613" y="32.812" fill="#FF440A" width="1.812" height="74.965"/>
			<rect x="178.194" y="32.812" fill="#FF440A" width="1.812" height="74.965"/>
			<rect x="181.776" y="32.812" fill="#FF440A" width="1.812" height="74.965"/>
			<rect x="185.356" y="32.812" fill="#FF440A" width="1.812" height="74.965"/>
			<rect x="188.938" y="32.812" fill="#FF440A" width="1.812" height="74.965"/>
			<rect x="192.52" y="32.812" fill="#FF440A" width="1.812" height="74.965"/>
		</g>
	</g>
</g>
<g>
	<path fill="#44A4FF" d="M77.731,8.911c0-0.396-0.198-0.648-0.585-0.648H76.12V9.55h1.035C77.488,9.55,77.731,9.28,77.731,8.911z"/>
	<path fill="#44A4FF" d="M77.362,10.64H76.12v1.503h1.269c0.423,0,0.667-0.36,0.667-0.766C78.056,10.991,77.794,10.64,77.362,10.64z
		"/>
	<path fill="#44A4FF" d="M94.521,4.074H70.965c-0.552,0-1,0.448-1,1v10.222c0,0.552,0.448,1,1,1h23.556c0.552,0,1-0.448,1-1V5.074
		C95.521,4.522,95.073,4.074,94.521,4.074z M78.902,12.755c-0.36,0.369-0.837,0.549-1.44,0.549h-2.665V7.102h2.485
		c1.116,0,1.836,0.675,1.836,1.729c0,0.468-0.261,0.936-0.846,1.161c0.378,0.099,0.667,0.288,0.864,0.567
		c0.207,0.279,0.306,0.558,0.306,0.846C79.442,11.936,79.262,12.386,78.902,12.755z M85.274,11.089c0,0.685-0.234,1.243-0.702,1.666
		c-0.468,0.423-1.035,0.639-1.692,0.639s-1.225-0.216-1.702-0.639c-0.477-0.423-0.711-0.981-0.711-1.666V7.102h1.342v3.988
		c0,0.315,0.108,0.567,0.315,0.766c0.216,0.198,0.468,0.297,0.756,0.297s0.54-0.099,0.747-0.297
		c0.216-0.208,0.324-0.459,0.324-0.766V7.102h1.323V11.089z M89.54,10.513v2.791h-1.341v-2.809l-2.395-3.394h1.567l1.494,2.322
		l1.513-2.322h1.566L89.54,10.513z"/>
</g>
<path fill="#FF440A" d="M124.151,21.111h-23.557c-0.552,0-1,0.448-1,1v10.222c0,0.552,0.448,1,1,1h23.557c0.552,0,1-0.448,1-1
	V22.111C125.151,21.559,124.703,21.111,124.151,21.111z M107.226,29.639c-0.44,0.567-1.125,0.801-1.89,0.801
	c-0.676,0-1.216-0.18-1.631-0.531c-0.414-0.36-0.621-0.819-0.621-1.386h1.324c0.027,0.423,0.359,0.747,0.928,0.747
	c0.539,0,0.899-0.261,0.908-0.657c0.01-0.315-0.162-0.531-0.747-0.702l-0.747-0.207c-1.071-0.333-1.603-0.927-1.603-1.783
	c0-0.549,0.207-0.99,0.612-1.333c0.405-0.351,0.918-0.522,1.521-0.522c0.612,0,1.116,0.171,1.504,0.513
	c0.396,0.342,0.594,0.801,0.594,1.386h-1.314c0-0.423-0.288-0.702-0.801-0.702c-0.469,0-0.802,0.261-0.802,0.621
	c0,0.297,0.226,0.504,0.667,0.63l0.737,0.234c1.161,0.333,1.729,0.963,1.702,1.873C107.559,29.009,107.452,29.351,107.226,29.639z
	 M112.663,30.341h-4.007v-6.203h3.925V25.3h-2.61v1.414h2.286v1.143h-2.286v1.324h2.692V30.341z M117.487,30.341h-3.646v-6.203
	h1.323v5.042h2.323V30.341z M122.084,30.341h-3.646v-6.203h1.324v5.042h2.322V30.341z"/>
<path fill="#FF440A" d="M124.151,38.148h-23.557c-0.552,0-1,0.448-1,1v10.222c0,0.552,0.448,1,1,1h23.557c0.552,0,1-0.448,1-1
	V39.148C125.151,38.596,124.703,38.148,124.151,38.148z M107.226,46.676c-0.44,0.567-1.125,0.801-1.89,0.801
	c-0.676,0-1.216-0.18-1.631-0.531c-0.414-0.36-0.621-0.819-0.621-1.386h1.324c0.027,0.423,0.359,0.747,0.928,0.747
	c0.539,0,0.899-0.261,0.908-0.657c0.01-0.315-0.162-0.531-0.747-0.702l-0.747-0.207c-1.071-0.333-1.603-0.927-1.603-1.783
	c0-0.549,0.207-0.99,0.612-1.333c0.405-0.351,0.918-0.522,1.521-0.522c0.612,0,1.116,0.171,1.504,0.513
	c0.396,0.342,0.594,0.801,0.594,1.386h-1.314c0-0.423-0.288-0.702-0.801-0.702c-0.469,0-0.802,0.261-0.802,0.621
	c0,0.297,0.226,0.504,0.667,0.63l0.737,0.234c1.161,0.333,1.729,0.963,1.702,1.873C107.559,46.046,107.452,46.388,107.226,46.676z
	 M112.663,47.378h-4.007v-6.203h3.925v1.161h-2.61v1.414h2.286v1.143h-2.286v1.324h2.692V47.378z M117.487,47.378h-3.646v-6.203
	h1.323v5.042h2.323V47.378z M122.084,47.378h-3.646v-6.203h1.324v5.042h2.322V47.378z"/>
<g>
	<path fill="#44A4FF" d="M77.731,60.022c0-0.396-0.198-0.648-0.585-0.648H76.12v1.288h1.035
		C77.488,60.662,77.731,60.391,77.731,60.022z"/>
	<path fill="#44A4FF" d="M77.362,61.751H76.12v1.503h1.269c0.423,0,0.667-0.36,0.667-0.766
		C78.056,62.102,77.794,61.751,77.362,61.751z"/>
	<path fill="#44A4FF" d="M94.521,55.186H70.965c-0.552,0-1,0.448-1,1v10.222c0,0.552,0.448,1,1,1h23.556c0.552,0,1-0.448,1-1V56.186
		C95.521,55.633,95.073,55.186,94.521,55.186z M78.902,63.866c-0.36,0.369-0.837,0.549-1.44,0.549h-2.665v-6.203h2.485
		c1.116,0,1.836,0.675,1.836,1.729c0,0.468-0.261,0.936-0.846,1.161c0.378,0.099,0.667,0.288,0.864,0.567
		c0.207,0.279,0.306,0.558,0.306,0.846C79.442,63.047,79.262,63.497,78.902,63.866z M85.274,62.201c0,0.685-0.234,1.243-0.702,1.666
		c-0.468,0.423-1.035,0.639-1.692,0.639s-1.225-0.216-1.702-0.639c-0.477-0.423-0.711-0.981-0.711-1.666v-3.988h1.342v3.988
		c0,0.315,0.108,0.567,0.315,0.766c0.216,0.198,0.468,0.297,0.756,0.297s0.54-0.099,0.747-0.297
		c0.216-0.208,0.324-0.459,0.324-0.766v-3.988h1.323V62.201z M89.54,61.625v2.791h-1.341v-2.809l-2.395-3.394h1.567l1.494,2.322
		l1.513-2.322h1.566L89.54,61.625z"/>
</g>
</svg>
